<?xml version="1.0" encoding="utf-8"?>
<!-- Generator: Adobe Illustrator 22.0.1, SVG Export Plug-In . SVG Version: 6.00 Build 0)  -->
<svg version="1.1" id="Layer_1" xmlns="http://www.w3.org/2000/svg" xmlns:xlink="http://www.w3.org/1999/xlink" x="0px" y="0px"
	 viewBox="0 0 207 204.5" style="enable-background:new 0 0 207 204.5;" xml:space="preserve">
<style type="text/css">
	.st0{fill:#8A337D;}
	.st1{fill:#FFFFFF;stroke:#FFFFFF;stroke-miterlimit:10;}
	.st2{fill:#027E94;}
	.st3{fill:#FFFFFF;}
</style>
<rect y="102.5" class="st0" width="206.5" height="101.5"/>
<path class="st1" d="M50.8,132.6c0-7.8-6.3-14.1-14.1-14.1c-7.8,0-14.1,6.3-14.1,14.1c0,6.8,4.8,12.4,11.1,13.8v7.9h-5v4h5v5.7h5.9
	v-5.7h5v-4h-5v-7.9C46,144.9,50.8,139.3,50.8,132.6z M27.1,132.6c0-5.3,4.3-9.6,9.6-9.6c5.3,0,9.6,4.3,9.6,9.6
	c0,5.3-4.3,9.6-9.6,9.6C31.4,142.2,27.1,137.9,27.1,132.6z"/>
<rect class="st2" width="206.5" height="98.9"/>
<g>
	<g>
		<g>
			<path class="st3" d="M109.8,21c0,0.6-0.2,1.1-0.6,1.4s-1,0.6-1.8,0.7v1.5h-0.8v-1.4c-0.5,0-0.9,0-1.4-0.1
				c-0.4-0.1-0.8-0.2-1.1-0.3v-1c0.4,0.2,0.8,0.3,1.2,0.4s0.9,0.1,1.3,0.1v-2.8c-0.9-0.3-1.5-0.6-1.8-1c-0.3-0.4-0.5-0.8-0.5-1.4
				c0-0.6,0.2-1,0.6-1.4c0.4-0.4,1-0.6,1.7-0.6V14h0.8v1.1c0.8,0,1.5,0.2,2.3,0.5l-0.3,0.8c-0.6-0.2-1.3-0.4-1.9-0.4v2.8
				c0.7,0.2,1.2,0.4,1.5,0.6c0.3,0.2,0.6,0.4,0.7,0.7C109.8,20.3,109.8,20.6,109.8,21z M105.3,17.1c0,0.3,0.1,0.6,0.3,0.8
				c0.2,0.2,0.5,0.4,1,0.6V16c-0.4,0.1-0.7,0.2-1,0.4S105.3,16.8,105.3,17.1z M108.8,21.1c0-0.3-0.1-0.6-0.3-0.7
				c-0.2-0.2-0.6-0.4-1.1-0.6v2.5C108.3,22.1,108.8,21.7,108.8,21.1z"/>
			<path class="st3" d="M117.4,23.8h-6.1v-0.9l2.4-2.5c0.7-0.8,1.2-1.3,1.5-1.6c0.2-0.3,0.4-0.6,0.5-0.9c0.1-0.3,0.2-0.6,0.2-1
				c0-0.5-0.2-0.9-0.5-1.2c-0.3-0.3-0.7-0.4-1.3-0.4c-0.4,0-0.8,0.1-1.1,0.2c-0.3,0.1-0.7,0.4-1.2,0.7l-0.6-0.7
				c0.9-0.7,1.8-1.1,2.8-1.1c0.9,0,1.6,0.2,2,0.7c0.5,0.4,0.7,1,0.7,1.8c0,0.6-0.2,1.2-0.5,1.7c-0.3,0.6-0.9,1.3-1.9,2.2l-2,2v0.1
				h4.8V23.8z"/>
			<path class="st3" d="M121.7,18.2c1,0,1.7,0.2,2.3,0.7s0.8,1.1,0.8,2c0,1-0.3,1.7-0.9,2.3s-1.5,0.8-2.5,0.8c-1,0-1.8-0.2-2.4-0.5
				v-1c0.3,0.2,0.7,0.3,1.1,0.4c0.4,0.1,0.9,0.2,1.3,0.2c0.7,0,1.3-0.2,1.7-0.5c0.4-0.4,0.6-0.9,0.6-1.5c0-1.3-0.8-1.9-2.4-1.9
				c-0.4,0-0.9,0.1-1.6,0.2l-0.5-0.3l0.3-4.3h4.6v1h-3.7l-0.2,2.8C120.7,18.2,121.2,18.2,121.7,18.2z"/>
			<path class="st3" d="M132.3,19.2c0,1.6-0.3,2.8-0.8,3.6c-0.5,0.8-1.3,1.2-2.3,1.2c-1,0-1.8-0.4-2.3-1.2c-0.5-0.8-0.8-2-0.8-3.6
				c0-1.6,0.3-2.8,0.8-3.6c0.5-0.8,1.3-1.2,2.3-1.2c1,0,1.8,0.4,2.3,1.2C132.1,16.4,132.3,17.6,132.3,19.2z M127.3,19.2
				c0,1.4,0.2,2.3,0.5,2.9s0.8,0.9,1.5,0.9c0.7,0,1.2-0.3,1.5-0.9c0.3-0.6,0.5-1.6,0.5-2.9c0-1.3-0.2-2.3-0.5-2.9
				c-0.3-0.6-0.8-0.9-1.5-0.9c-0.7,0-1.2,0.3-1.5,0.9S127.3,17.8,127.3,19.2z"/>
			<path class="st3" d="M135.2,22.3l0.1,0.1c-0.1,0.4-0.3,0.9-0.5,1.5c-0.2,0.6-0.4,1.1-0.6,1.6h-0.8c0.1-0.4,0.2-1,0.4-1.6
				c0.1-0.6,0.2-1.2,0.3-1.6H135.2z"/>
			<path class="st3" d="M143,19.2c0,1.6-0.3,2.8-0.8,3.6c-0.5,0.8-1.3,1.2-2.3,1.2c-1,0-1.8-0.4-2.3-1.2c-0.5-0.8-0.8-2-0.8-3.6
				c0-1.6,0.3-2.8,0.8-3.6c0.5-0.8,1.3-1.2,2.3-1.2c1,0,1.8,0.4,2.3,1.2C142.7,16.4,143,17.6,143,19.2z M137.9,19.2
				c0,1.4,0.2,2.3,0.5,2.9s0.8,0.9,1.5,0.9c0.7,0,1.2-0.3,1.5-0.9c0.3-0.6,0.5-1.6,0.5-2.9c0-1.3-0.2-2.3-0.5-2.9
				c-0.3-0.6-0.8-0.9-1.5-0.9c-0.7,0-1.2,0.3-1.5,0.9S137.9,17.8,137.9,19.2z"/>
			<path class="st3" d="M150.4,19.2c0,1.6-0.3,2.8-0.8,3.6c-0.5,0.8-1.3,1.2-2.3,1.2c-1,0-1.8-0.4-2.3-1.2c-0.5-0.8-0.8-2-0.8-3.6
				c0-1.6,0.3-2.8,0.8-3.6c0.5-0.8,1.3-1.2,2.3-1.2c1,0,1.8,0.4,2.3,1.2C150.1,16.4,150.4,17.6,150.4,19.2z M145.3,19.2
				c0,1.4,0.2,2.3,0.5,2.9c0.3,0.6,0.8,0.9,1.5,0.9c0.7,0,1.2-0.3,1.5-0.9s0.5-1.6,0.5-2.9c0-1.3-0.2-2.3-0.5-2.9
				c-0.3-0.6-0.8-0.9-1.5-0.9c-0.7,0-1.2,0.3-1.5,0.9C145.5,16.8,145.3,17.8,145.3,19.2z"/>
			<path class="st3" d="M157.8,19.2c0,1.6-0.3,2.8-0.8,3.6c-0.5,0.8-1.3,1.2-2.3,1.2c-1,0-1.8-0.4-2.3-1.2c-0.5-0.8-0.8-2-0.8-3.6
				c0-1.6,0.3-2.8,0.8-3.6c0.5-0.8,1.3-1.2,2.3-1.2c1,0,1.8,0.4,2.3,1.2C157.6,16.4,157.8,17.6,157.8,19.2z M152.8,19.2
				c0,1.4,0.2,2.3,0.5,2.9s0.8,0.9,1.5,0.9c0.7,0,1.2-0.3,1.5-0.9c0.3-0.6,0.5-1.6,0.5-2.9c0-1.3-0.2-2.3-0.5-2.9
				c-0.3-0.6-0.8-0.9-1.5-0.9c-0.7,0-1.2,0.3-1.5,0.9S152.8,17.8,152.8,19.2z"/>
		</g>
		<g>
			<path class="st3" d="M119.9,33.3c-0.7,0-1.2-0.2-1.6-0.6s-0.6-1-0.6-1.8c0-0.8,0.2-1.4,0.6-1.8c0.4-0.4,0.9-0.6,1.6-0.6
				c0.2,0,0.4,0,0.7,0.1c0.2,0,0.4,0.1,0.5,0.2l-0.2,0.6c-0.2-0.1-0.3-0.1-0.5-0.2c-0.2,0-0.3-0.1-0.5-0.1c-0.9,0-1.4,0.6-1.4,1.8
				c0,0.6,0.1,1,0.3,1.3s0.6,0.5,1,0.5c0.4,0,0.8-0.1,1.2-0.2v0.6C120.8,33.2,120.4,33.3,119.9,33.3z"/>
			<path class="st3" d="M126.2,30.9c0,0.8-0.2,1.3-0.6,1.8c-0.4,0.4-0.9,0.6-1.6,0.6c-0.4,0-0.8-0.1-1.1-0.3
				c-0.3-0.2-0.6-0.5-0.7-0.8c-0.2-0.4-0.3-0.8-0.3-1.3c0-0.8,0.2-1.3,0.6-1.8c0.4-0.4,0.9-0.6,1.6-0.6c0.6,0,1.2,0.2,1.5,0.6
				C126,29.6,126.2,30.2,126.2,30.9z M122.7,30.9c0,0.6,0.1,1,0.4,1.4c0.2,0.3,0.6,0.5,1,0.5c0.5,0,0.8-0.2,1-0.5s0.4-0.8,0.4-1.4
				c0-0.6-0.1-1-0.4-1.3c-0.2-0.3-0.6-0.5-1.1-0.5c-0.5,0-0.8,0.2-1,0.5C122.8,29.8,122.7,30.3,122.7,30.9z"/>
			<path class="st3" d="M128.5,33.2l-1.8-4.6h0.8l1,2.8c0.2,0.6,0.4,1.1,0.4,1.3h0c0-0.1,0.1-0.5,0.3-0.9s0.5-1.5,1.1-3.1h0.8
				l-1.8,4.6H128.5z"/>
			<path class="st3" d="M133.8,33.3c-0.7,0-1.2-0.2-1.6-0.6s-0.6-1-0.6-1.7c0-0.7,0.2-1.3,0.6-1.8s0.9-0.7,1.5-0.7
				c0.6,0,1,0.2,1.4,0.6c0.3,0.4,0.5,0.9,0.5,1.5V31h-3.2c0,0.5,0.2,1,0.4,1.2c0.3,0.3,0.6,0.4,1.1,0.4c0.5,0,1-0.1,1.5-0.3V33
				c-0.2,0.1-0.5,0.2-0.7,0.2C134.3,33.3,134.1,33.3,133.8,33.3z M133.6,29.1c-0.4,0-0.7,0.1-0.9,0.4c-0.2,0.2-0.4,0.6-0.4,1h2.4
				c0-0.4-0.1-0.8-0.3-1C134.2,29.2,133.9,29.1,133.6,29.1z"/>
			<path class="st3" d="M138.8,28.5c0.2,0,0.4,0,0.6,0.1l-0.1,0.7c-0.2,0-0.4-0.1-0.5-0.1c-0.4,0-0.7,0.2-1,0.5
				c-0.3,0.3-0.4,0.7-0.4,1.1v2.5h-0.7v-4.6h0.6l0.1,0.9h0c0.2-0.3,0.4-0.5,0.6-0.7S138.5,28.5,138.8,28.5z"/>
			<path class="st3" d="M143,33.2l-0.1-0.7h0c-0.2,0.3-0.5,0.5-0.7,0.6c-0.2,0.1-0.5,0.2-0.9,0.2c-0.5,0-0.8-0.1-1.1-0.4
				c-0.3-0.2-0.4-0.6-0.4-1c0-0.9,0.7-1.4,2.2-1.5l0.8,0v-0.3c0-0.4-0.1-0.6-0.2-0.8c-0.2-0.2-0.4-0.3-0.8-0.3
				c-0.4,0-0.8,0.1-1.3,0.4l-0.2-0.5c0.2-0.1,0.5-0.2,0.8-0.3c0.3-0.1,0.5-0.1,0.8-0.1c0.6,0,1,0.1,1.2,0.4c0.3,0.2,0.4,0.6,0.4,1.2
				v3.2H143z M141.5,32.7c0.4,0,0.8-0.1,1-0.4s0.4-0.6,0.4-1v-0.4l-0.7,0c-0.6,0-1,0.1-1.2,0.3c-0.2,0.2-0.4,0.4-0.4,0.7
				c0,0.3,0.1,0.4,0.2,0.6C141,32.7,141.2,32.7,141.5,32.7z"/>
			<path class="st3" d="M148.8,28.6V29l-0.9,0.1c0.1,0.1,0.2,0.2,0.2,0.4c0.1,0.2,0.1,0.3,0.1,0.5c0,0.5-0.2,0.8-0.5,1.1
				c-0.3,0.3-0.7,0.4-1.3,0.4c-0.1,0-0.3,0-0.4,0c-0.3,0.2-0.4,0.4-0.4,0.6c0,0.1,0.1,0.2,0.2,0.3s0.3,0.1,0.5,0.1h0.8
				c0.5,0,0.9,0.1,1.2,0.3c0.3,0.2,0.4,0.5,0.4,0.9c0,0.5-0.2,0.9-0.6,1.2c-0.4,0.3-1,0.4-1.8,0.4c-0.6,0-1.1-0.1-1.4-0.3
				c-0.3-0.2-0.5-0.5-0.5-1c0-0.3,0.1-0.5,0.3-0.7c0.2-0.2,0.4-0.3,0.8-0.4c-0.1-0.1-0.2-0.1-0.3-0.2c-0.1-0.1-0.1-0.2-0.1-0.4
				c0-0.2,0-0.3,0.1-0.4c0.1-0.1,0.2-0.3,0.4-0.4c-0.2-0.1-0.4-0.3-0.6-0.5c-0.2-0.2-0.2-0.5-0.2-0.8c0-0.5,0.2-0.9,0.5-1.2
				c0.3-0.3,0.7-0.4,1.3-0.4c0.2,0,0.5,0,0.7,0.1H148.8z M145.1,34c0,0.3,0.1,0.4,0.3,0.6c0.2,0.1,0.5,0.2,0.9,0.2
				c0.6,0,1-0.1,1.3-0.3c0.3-0.2,0.4-0.4,0.4-0.7c0-0.3-0.1-0.4-0.2-0.5c-0.2-0.1-0.4-0.1-0.9-0.1h-0.8c-0.3,0-0.6,0.1-0.7,0.2
				S145.1,33.7,145.1,34z M145.5,30.1c0,0.3,0.1,0.6,0.3,0.7s0.4,0.2,0.8,0.2c0.7,0,1-0.3,1-1c0-0.7-0.3-1-1-1
				c-0.3,0-0.6,0.1-0.8,0.3S145.5,29.7,145.5,30.1z"/>
			<path class="st3" d="M151.7,33.3c-0.7,0-1.2-0.2-1.6-0.6s-0.6-1-0.6-1.7c0-0.7,0.2-1.3,0.6-1.8s0.9-0.7,1.5-0.7
				c0.6,0,1,0.2,1.4,0.6c0.3,0.4,0.5,0.9,0.5,1.5V31h-3.2c0,0.5,0.2,1,0.4,1.2c0.3,0.3,0.6,0.4,1.1,0.4c0.5,0,1-0.1,1.5-0.3V33
				c-0.2,0.1-0.5,0.2-0.7,0.2C152.3,33.3,152,33.3,151.7,33.3z M151.5,29.1c-0.4,0-0.7,0.1-0.9,0.4c-0.2,0.2-0.4,0.6-0.4,1h2.4
				c0-0.4-0.1-0.8-0.3-1C152.2,29.2,151.9,29.1,151.5,29.1z"/>
		</g>
	</g>
	<g>
		<path class="st3" d="M83.1,66.7c-2.5-0.1-5-0.7-7.3-1.7v-5.8c1.3,0.7,2.8,1.3,4.4,1.7c1.6,0.5,3,0.7,4.1,0.7c1,0,1.7-0.1,2.2-0.4
			c0.5-0.2,0.7-0.6,0.7-1.2c0-0.4-0.2-0.7-0.5-1c-0.3-0.3-0.9-0.6-1.6-0.9s-1.8-0.7-3.1-1.2c-1.5-0.5-2.7-1.2-3.6-1.8
			c-0.9-0.7-1.6-1.4-2-2.3c-0.4-0.8-0.6-1.9-0.6-3.1c0-1.9,0.6-3.4,1.8-4.5c1.2-1.1,3.1-1.7,5.5-2v-2.4h3.6v2.3
			c2.3,0.1,4.6,0.7,7,1.7l-2.1,4.9c-2.4-1.1-4.6-1.6-6.5-1.6c-0.9,0-1.6,0.1-2,0.3c-0.4,0.2-0.6,0.6-0.6,1c0,0.4,0.1,0.7,0.4,0.9
			c0.3,0.2,0.7,0.5,1.4,0.8c0.7,0.3,1.6,0.7,2.8,1.1c2.4,0.9,4.2,1.8,5.2,2.9c1.1,1.1,1.6,2.5,1.6,4.2c0,1.9-0.6,3.5-1.8,4.7
			c-1.2,1.2-3,2-5.4,2.3V70h-3.6V66.7z"/>
		<path class="st3" d="M111.5,67.9h-7V54.5c0-1.6,0-3.1,0.1-4.5c-0.4,0.5-1,1.1-1.6,1.6l-2.9,2.4l-3.6-4.4l8.7-7.1h6.2V67.9z"/>
		<path class="st3" d="M134.6,48c0,1.6-0.5,2.9-1.4,4s-2.3,1.9-4.2,2.5v0.1c4.2,0.5,6.3,2.5,6.3,6c0,2.4-0.9,4.2-2.8,5.6
			c-1.9,1.4-4.5,2-7.8,2c-1.4,0-2.6-0.1-3.8-0.3c-1.2-0.2-2.4-0.6-3.8-1.1v-5.7c1.1,0.6,2.2,1,3.4,1.3c1.2,0.3,2.2,0.4,3.2,0.4
			c1.5,0,2.6-0.2,3.3-0.6c0.7-0.4,1-1.1,1-2c0-0.7-0.2-1.2-0.5-1.6c-0.4-0.4-0.9-0.7-1.7-0.8c-0.8-0.2-1.8-0.3-3.1-0.3h-1.6v-5.2
			h1.6c3.5,0,5.2-0.9,5.2-2.7c0-0.7-0.3-1.2-0.8-1.5c-0.5-0.3-1.2-0.5-2.1-0.5c-1.6,0-3.3,0.5-5,1.6l-2.8-4.6c1.3-0.9,2.7-1.6,4.1-2
			c1.4-0.4,3-0.6,4.8-0.6c2.6,0,4.7,0.5,6.2,1.6C133.9,44.8,134.6,46.2,134.6,48z"/>
		<path class="st3" d="M138.3,65c0-1.1,0.3-1.9,0.9-2.5c0.6-0.6,1.5-0.9,2.7-0.9c1.1,0,2,0.3,2.6,0.9c0.6,0.6,0.9,1.4,0.9,2.5
			c0,1-0.3,1.9-0.9,2.4c-0.6,0.6-1.5,0.9-2.6,0.9c-1.1,0-2-0.3-2.7-0.9S138.3,66.1,138.3,65z"/>
		<path class="st3" d="M166.7,54.1c0,5-1.1,8.6-3.2,10.8c-2.1,2.2-5.6,3.3-10.3,3.3c-1.5,0-2.7-0.1-3.5-0.2v-5.4c1,0.2,2,0.3,3,0.3
			c2.5,0,4.3-0.5,5.7-1.5c1.3-1,2.1-2.6,2.2-4.8h-0.2c-0.5,0.8-0.9,1.4-1.3,1.8c-0.4,0.4-1,0.7-1.6,0.9s-1.4,0.3-2.4,0.3
			c-2.2,0-3.9-0.7-5.2-2.2c-1.2-1.5-1.9-3.5-1.9-6.1c0-2.8,0.8-5,2.4-6.6s3.8-2.4,6.6-2.4c3.1,0,5.5,1,7.2,3.1
			C165.9,47.4,166.7,50.3,166.7,54.1z M157.2,47.8c-0.8,0-1.4,0.3-1.8,0.8c-0.5,0.5-0.7,1.4-0.7,2.6c0,0.9,0.2,1.7,0.6,2.3
			c0.4,0.6,1,0.8,1.9,0.8c0.8,0,1.4-0.3,2-0.8s0.8-1.2,0.8-2c0-1-0.3-1.9-0.8-2.7C158.6,48.1,158,47.8,157.2,47.8z"/>
		<path class="st3" d="M171.5,67.9l8.7-19.7h-11v-5.7h18.3v4l-8.9,21.3H171.5z"/>
		<path class="st3" d="M191.5,43.3l-0.2,1.7l1.7-0.5l0.1,0.8l-1.6,0.1l1,1.4l-0.7,0.4l-0.7-1.5l-0.7,1.5l-0.7-0.4l1-1.4l-1.6-0.1
			l0.1-0.8l1.7,0.5l-0.2-1.7H191.5z"/>
	</g>
	<g>
		<path class="st3" d="M117.7,81c-0.3,0-0.6-0.1-0.8-0.2c-0.2-0.1-0.5-0.3-0.6-0.5h-0.1c0,0.3,0.1,0.5,0.1,0.8V83h-0.7v-6.7h0.6
			l0.1,0.6h0c0.2-0.3,0.4-0.4,0.6-0.5s0.5-0.2,0.8-0.2c0.6,0,1.1,0.2,1.4,0.6c0.3,0.4,0.5,1,0.5,1.8c0,0.8-0.2,1.4-0.5,1.8
			S118.3,81,117.7,81z M117.6,76.8c-0.5,0-0.8,0.1-1,0.4s-0.3,0.7-0.3,1.3v0.2c0,0.7,0.1,1.1,0.3,1.4c0.2,0.3,0.6,0.4,1,0.4
			c0.4,0,0.7-0.2,0.9-0.5c0.2-0.3,0.3-0.8,0.3-1.3c0-0.6-0.1-1-0.3-1.3S118,76.8,117.6,76.8z"/>
		<path class="st3" d="M122.8,81c-0.7,0-1.2-0.2-1.6-0.6s-0.6-1-0.6-1.7c0-0.7,0.2-1.3,0.6-1.8s0.9-0.7,1.5-0.7c0.6,0,1,0.2,1.4,0.6
			c0.3,0.4,0.5,0.9,0.5,1.5v0.4h-3.2c0,0.5,0.2,1,0.4,1.2c0.3,0.3,0.6,0.4,1.1,0.4c0.5,0,1-0.1,1.5-0.3v0.6
			c-0.2,0.1-0.5,0.2-0.7,0.2C123.4,80.9,123.1,81,122.8,81z M122.6,76.7c-0.4,0-0.7,0.1-0.9,0.4c-0.2,0.2-0.4,0.6-0.4,1h2.4
			c0-0.4-0.1-0.8-0.3-1C123.3,76.9,123,76.7,122.6,76.7z"/>
		<path class="st3" d="M127.9,76.2c0.2,0,0.4,0,0.6,0.1l-0.1,0.7c-0.2,0-0.4-0.1-0.5-0.1c-0.4,0-0.7,0.2-1,0.5
			c-0.3,0.3-0.4,0.7-0.4,1.1v2.5h-0.7v-4.6h0.6l0.1,0.9h0c0.2-0.3,0.4-0.5,0.6-0.7S127.6,76.2,127.9,76.2z"/>
		<path class="st3" d="M137.4,80.9v-3c0-0.4-0.1-0.6-0.2-0.8c-0.2-0.2-0.4-0.3-0.7-0.3c-0.4,0-0.8,0.1-1,0.4
			c-0.2,0.3-0.3,0.6-0.3,1.2v2.6h-0.7v-3c0-0.4-0.1-0.6-0.2-0.8c-0.2-0.2-0.4-0.3-0.7-0.3c-0.4,0-0.8,0.1-1,0.4
			c-0.2,0.3-0.3,0.7-0.3,1.3v2.4h-0.7v-4.6h0.6l0.1,0.6h0c0.1-0.2,0.3-0.4,0.6-0.5c0.2-0.1,0.5-0.2,0.8-0.2c0.7,0,1.2,0.3,1.4,0.8h0
			c0.1-0.2,0.3-0.4,0.6-0.6c0.3-0.1,0.6-0.2,0.9-0.2c0.5,0,0.9,0.1,1.2,0.4c0.3,0.3,0.4,0.7,0.4,1.3v3H137.4z"/>
		<path class="st3" d="M143.6,78.6c0,0.8-0.2,1.3-0.6,1.8c-0.4,0.4-0.9,0.6-1.6,0.6c-0.4,0-0.8-0.1-1.1-0.3
			c-0.3-0.2-0.6-0.5-0.7-0.8c-0.2-0.4-0.3-0.8-0.3-1.3c0-0.8,0.2-1.3,0.6-1.8c0.4-0.4,0.9-0.6,1.6-0.6c0.6,0,1.2,0.2,1.5,0.6
			C143.4,77.2,143.6,77.8,143.6,78.6z M140.1,78.6c0,0.6,0.1,1,0.4,1.4c0.2,0.3,0.6,0.5,1,0.5c0.5,0,0.8-0.2,1-0.5s0.4-0.8,0.4-1.4
			c0-0.6-0.1-1-0.4-1.3c-0.2-0.3-0.6-0.5-1.1-0.5c-0.5,0-0.8,0.2-1,0.5C140.2,77.5,140.1,78,140.1,78.6z"/>
		<path class="st3" d="M148,80.9v-3c0-0.4-0.1-0.7-0.3-0.8s-0.4-0.3-0.8-0.3c-0.5,0-0.8,0.1-1.1,0.4s-0.3,0.7-0.3,1.3v2.4h-0.7v-4.6
			h0.6l0.1,0.6h0c0.1-0.2,0.3-0.4,0.6-0.5c0.3-0.1,0.5-0.2,0.9-0.2c0.6,0,1,0.1,1.3,0.4s0.4,0.7,0.4,1.3v3H148z"/>
		<path class="st3" d="M151.6,80.4c0.1,0,0.2,0,0.4,0c0.1,0,0.2,0,0.3-0.1v0.5c-0.1,0-0.2,0.1-0.3,0.1c-0.1,0-0.3,0-0.4,0
			c-0.9,0-1.3-0.5-1.3-1.4v-2.8h-0.7v-0.3l0.7-0.3l0.3-1h0.4v1.1h1.3v0.5h-1.3v2.7c0,0.3,0.1,0.5,0.2,0.6
			C151.2,80.3,151.4,80.4,151.6,80.4z"/>
		<path class="st3" d="M156.4,80.9v-3c0-0.4-0.1-0.7-0.3-0.8s-0.4-0.3-0.8-0.3c-0.5,0-0.8,0.1-1.1,0.4c-0.2,0.3-0.3,0.7-0.3,1.3v2.4
			h-0.7v-6.6h0.7v2c0,0.2,0,0.4,0,0.6h0c0.1-0.2,0.3-0.4,0.6-0.5c0.3-0.1,0.5-0.2,0.9-0.2c0.6,0,1,0.1,1.3,0.4
			c0.3,0.3,0.4,0.7,0.4,1.3v3H156.4z"/>
	</g>
	<g>
		<path class="st3" d="M26,71.4l-2.2-5.7h0c0,0.5,0.1,1,0.1,1.6v4.1h-0.7v-6.4h1.1l2,5.3h0l2.1-5.3h1.1v6.4h-0.7v-4.1
			c0-0.5,0-1,0.1-1.5h0l-2.2,5.7H26z"/>
		<path class="st3" d="M34.1,71.4L34,70.7h0c-0.2,0.3-0.5,0.5-0.7,0.6c-0.2,0.1-0.5,0.2-0.9,0.2c-0.5,0-0.9-0.1-1.1-0.4
			s-0.4-0.6-0.4-1.1c0-1,0.8-1.5,2.3-1.5l0.8,0v-0.3c0-0.4-0.1-0.7-0.2-0.8c-0.2-0.2-0.4-0.3-0.8-0.3c-0.4,0-0.9,0.1-1.4,0.4
			l-0.2-0.6c0.2-0.1,0.5-0.2,0.8-0.3s0.6-0.1,0.9-0.1c0.6,0,1,0.1,1.3,0.4c0.3,0.3,0.4,0.7,0.4,1.2v3.3H34.1z M32.5,70.8
			c0.5,0,0.8-0.1,1.1-0.4c0.3-0.2,0.4-0.6,0.4-1V69l-0.7,0c-0.6,0-1,0.1-1.3,0.3c-0.3,0.2-0.4,0.4-0.4,0.7c0,0.3,0.1,0.5,0.2,0.6
			S32.2,70.8,32.5,70.8z"/>
		<path class="st3" d="M36.9,71.4h-0.7v-6.8h0.7V71.4z"/>
		<path class="st3" d="M40.5,71.4c-0.7,0-1.3-0.2-1.7-0.7c-0.4-0.4-0.6-1-0.6-1.8c0-0.8,0.2-1.4,0.6-1.9c0.4-0.5,0.9-0.7,1.5-0.7
			c0.6,0,1.1,0.2,1.4,0.6s0.5,0.9,0.5,1.6v0.5h-3.3c0,0.6,0.2,1,0.4,1.3s0.7,0.4,1.1,0.4c0.5,0,1-0.1,1.5-0.3v0.7
			c-0.3,0.1-0.5,0.2-0.7,0.2C41.1,71.4,40.8,71.4,40.5,71.4z M40.3,67.1c-0.4,0-0.7,0.1-0.9,0.4c-0.2,0.3-0.4,0.6-0.4,1h2.5
			c0-0.5-0.1-0.8-0.3-1.1C41,67.2,40.7,67.1,40.3,67.1z"/>
		<path class="st3" d="M23.3,82.2l-0.8-2h-2.6l-0.8,2h-0.8l2.5-6.5h0.6l2.5,6.5H23.3z M22.2,79.4l-0.7-2c-0.1-0.3-0.2-0.6-0.3-0.9
			c-0.1,0.3-0.2,0.6-0.3,0.9l-0.8,2H22.2z"/>
		<path class="st3" d="M28.8,77.3v0.5l-0.9,0.1c0.1,0.1,0.2,0.2,0.2,0.4c0.1,0.2,0.1,0.4,0.1,0.6c0,0.5-0.2,0.8-0.5,1.1
			s-0.8,0.4-1.3,0.4c-0.1,0-0.3,0-0.4,0c-0.3,0.2-0.5,0.4-0.5,0.6c0,0.1,0.1,0.2,0.2,0.3c0.1,0.1,0.3,0.1,0.6,0.1h0.9
			c0.5,0,0.9,0.1,1.2,0.3c0.3,0.2,0.4,0.5,0.4,1c0,0.5-0.2,0.9-0.6,1.2s-1.1,0.4-1.9,0.4c-0.6,0-1.1-0.1-1.5-0.4
			c-0.3-0.2-0.5-0.6-0.5-1c0-0.3,0.1-0.5,0.3-0.8s0.5-0.4,0.8-0.4c-0.1-0.1-0.2-0.1-0.3-0.3c-0.1-0.1-0.1-0.3-0.1-0.4
			c0-0.2,0-0.3,0.1-0.5s0.2-0.3,0.4-0.4c-0.2-0.1-0.5-0.3-0.6-0.5s-0.2-0.5-0.2-0.8c0-0.5,0.2-0.9,0.5-1.2c0.3-0.3,0.8-0.4,1.3-0.4
			c0.3,0,0.5,0,0.7,0.1H28.8z M24.9,83c0,0.3,0.1,0.5,0.3,0.6s0.5,0.2,0.9,0.2c0.6,0,1.1-0.1,1.4-0.3c0.3-0.2,0.4-0.4,0.4-0.7
			c0-0.3-0.1-0.4-0.2-0.5c-0.2-0.1-0.5-0.2-0.9-0.2H26c-0.3,0-0.6,0.1-0.8,0.2S24.9,82.7,24.9,83z M25.3,78.9c0,0.3,0.1,0.6,0.3,0.8
			s0.5,0.3,0.8,0.3c0.7,0,1.1-0.3,1.1-1c0-0.7-0.4-1.1-1.1-1.1c-0.3,0-0.6,0.1-0.8,0.3S25.3,78.5,25.3,78.9z"/>
		<path class="st3" d="M31.8,82.2c-0.7,0-1.3-0.2-1.7-0.7c-0.4-0.4-0.6-1-0.6-1.8c0-0.8,0.2-1.4,0.6-1.9c0.4-0.5,0.9-0.7,1.5-0.7
			c0.6,0,1.1,0.2,1.4,0.6s0.5,0.9,0.5,1.6v0.5h-3.3c0,0.6,0.2,1,0.4,1.3s0.7,0.4,1.1,0.4c0.5,0,1-0.1,1.5-0.3v0.7
			c-0.3,0.1-0.5,0.2-0.7,0.2C32.4,82.2,32.1,82.2,31.8,82.2z M31.6,77.9c-0.4,0-0.7,0.1-0.9,0.4c-0.2,0.3-0.4,0.6-0.4,1h2.5
			c0-0.5-0.1-0.8-0.3-1.1C32.3,78,32,77.9,31.6,77.9z"/>
		<path class="st3" d="M41.3,80.7h-1v1.5h-0.7v-1.5h-3.1V80l3-4.3h0.8V80h1V80.7z M39.7,80v-2.1c0-0.4,0-0.9,0-1.4h0
			c-0.1,0.3-0.3,0.5-0.4,0.7l-2,2.9H39.7z"/>
		<path class="st3" d="M46.2,78.9c0,1.1-0.2,1.9-0.5,2.5c-0.4,0.5-0.9,0.8-1.6,0.8c-0.7,0-1.2-0.3-1.6-0.8C42.1,80.8,42,80,42,78.9
			c0-1.1,0.2-1.9,0.5-2.5s0.9-0.8,1.6-0.8c0.7,0,1.2,0.3,1.6,0.8C46,77,46.2,77.9,46.2,78.9z M42.7,78.9c0,0.9,0.1,1.6,0.3,2
			c0.2,0.4,0.6,0.6,1.1,0.6c0.5,0,0.8-0.2,1.1-0.6s0.3-1.1,0.3-2s-0.1-1.6-0.3-2s-0.6-0.6-1.1-0.6c-0.5,0-0.8,0.2-1.1,0.6
			S42.7,78,42.7,78.9z"/>
	</g>
</g>
<path class="st1" d="M44,32.5l6.8-6.8l3.2,3.2l0.8-10l-10,0.8L48,23l-6.8,6.8C35.7,25.6,27.8,26,22.8,31c-5.5,5.5-5.5,14.4,0,19.9
	c5.5,5.5,14.4,5.5,19.9,0C47.7,45.9,48.1,38.1,44,32.5z M25.9,47.8c-3.8-3.8-3.8-9.9,0-13.6c3.8-3.8,9.9-3.8,13.6,0
	c3.8,3.8,3.8,9.9,0,13.6S29.7,51.5,25.9,47.8z"/>
<g>
	<g>
		<g>
			<path class="st3" d="M109.3,127.1c0,0.6-0.2,1.1-0.6,1.4s-1,0.6-1.8,0.7v1.5H106v-1.4c-0.5,0-0.9,0-1.4-0.1
				c-0.4-0.1-0.8-0.2-1.1-0.3v-1c0.4,0.2,0.8,0.3,1.2,0.4s0.9,0.1,1.3,0.1v-2.8c-0.9-0.3-1.5-0.6-1.8-1c-0.3-0.4-0.5-0.8-0.5-1.4
				c0-0.6,0.2-1,0.6-1.4c0.4-0.4,1-0.6,1.7-0.6v-1.2h0.8v1.1c0.8,0,1.5,0.2,2.3,0.5l-0.3,0.8c-0.6-0.2-1.3-0.4-1.9-0.4v2.8
				c0.7,0.2,1.2,0.4,1.5,0.6c0.3,0.2,0.6,0.4,0.7,0.7C109.2,126.4,109.3,126.8,109.3,127.1z M104.7,123.3c0,0.3,0.1,0.6,0.3,0.8
				c0.2,0.2,0.5,0.4,1,0.6v-2.5c-0.4,0.1-0.7,0.2-1,0.4S104.7,123,104.7,123.3z M108.2,127.2c0-0.3-0.1-0.6-0.3-0.7
				c-0.2-0.2-0.6-0.4-1.1-0.6v2.5C107.8,128.3,108.2,127.9,108.2,127.2z"/>
			<path class="st3" d="M116.9,130h-6.1v-0.9l2.4-2.5c0.7-0.8,1.2-1.3,1.5-1.6c0.2-0.3,0.4-0.6,0.5-0.9c0.1-0.3,0.2-0.6,0.2-1
				c0-0.5-0.2-0.9-0.5-1.2c-0.3-0.3-0.7-0.4-1.3-0.4c-0.4,0-0.8,0.1-1.1,0.2c-0.3,0.1-0.7,0.4-1.2,0.7l-0.6-0.7
				c0.9-0.7,1.8-1.1,2.8-1.1c0.9,0,1.6,0.2,2,0.7c0.5,0.4,0.7,1,0.7,1.8c0,0.6-0.2,1.2-0.5,1.7c-0.3,0.6-0.9,1.3-1.9,2.2l-2,2v0.1
				h4.8V130z"/>
			<path class="st3" d="M121.1,124.3c1,0,1.7,0.2,2.3,0.7s0.8,1.1,0.8,2c0,1-0.3,1.7-0.9,2.3s-1.5,0.8-2.5,0.8c-1,0-1.8-0.2-2.4-0.5
				v-1c0.3,0.2,0.7,0.3,1.1,0.4c0.4,0.1,0.9,0.2,1.3,0.2c0.7,0,1.3-0.2,1.7-0.5c0.4-0.4,0.6-0.9,0.6-1.5c0-1.3-0.8-1.9-2.4-1.9
				c-0.4,0-0.9,0.1-1.6,0.2l-0.5-0.3l0.3-4.3h4.6v1h-3.7l-0.2,2.8C120.2,124.4,120.6,124.3,121.1,124.3z"/>
			<path class="st3" d="M131.8,125.3c0,1.6-0.3,2.8-0.8,3.6c-0.5,0.8-1.3,1.2-2.3,1.2c-1,0-1.8-0.4-2.3-1.2c-0.5-0.8-0.8-2-0.8-3.6
				c0-1.6,0.3-2.8,0.8-3.6c0.5-0.8,1.3-1.2,2.3-1.2c1,0,1.8,0.4,2.3,1.2C131.5,122.6,131.8,123.8,131.8,125.3z M126.7,125.3
				c0,1.4,0.2,2.3,0.5,2.9s0.8,0.9,1.5,0.9c0.7,0,1.2-0.3,1.5-0.9c0.3-0.6,0.5-1.6,0.5-2.9c0-1.3-0.2-2.3-0.5-2.9
				c-0.3-0.6-0.8-0.9-1.5-0.9c-0.7,0-1.2,0.3-1.5,0.9S126.7,124,126.7,125.3z"/>
			<path class="st3" d="M134.7,128.5l0.1,0.1c-0.1,0.4-0.3,0.9-0.5,1.5c-0.2,0.6-0.4,1.1-0.6,1.6h-0.8c0.1-0.4,0.2-1,0.4-1.6
				c0.1-0.6,0.2-1.2,0.3-1.6H134.7z"/>
			<path class="st3" d="M142.4,125.3c0,1.6-0.3,2.8-0.8,3.6c-0.5,0.8-1.3,1.2-2.3,1.2c-1,0-1.8-0.4-2.3-1.2c-0.5-0.8-0.8-2-0.8-3.6
				c0-1.6,0.3-2.8,0.8-3.6c0.5-0.8,1.3-1.2,2.3-1.2c1,0,1.8,0.4,2.3,1.2C142.2,122.6,142.4,123.8,142.4,125.3z M137.4,125.3
				c0,1.4,0.2,2.3,0.5,2.9s0.8,0.9,1.5,0.9c0.7,0,1.2-0.3,1.5-0.9c0.3-0.6,0.5-1.6,0.5-2.9c0-1.3-0.2-2.3-0.5-2.9
				c-0.3-0.6-0.8-0.9-1.5-0.9c-0.7,0-1.2,0.3-1.5,0.9S137.4,124,137.4,125.3z"/>
			<path class="st3" d="M149.9,125.3c0,1.6-0.3,2.8-0.8,3.6c-0.5,0.8-1.3,1.2-2.3,1.2c-1,0-1.8-0.4-2.3-1.2c-0.5-0.8-0.8-2-0.8-3.6
				c0-1.6,0.3-2.8,0.8-3.6c0.5-0.8,1.3-1.2,2.3-1.2c1,0,1.8,0.4,2.3,1.2C149.6,122.6,149.9,123.8,149.9,125.3z M144.8,125.3
				c0,1.4,0.2,2.3,0.5,2.9c0.3,0.6,0.8,0.9,1.5,0.9c0.7,0,1.2-0.3,1.5-0.9s0.5-1.6,0.5-2.9c0-1.3-0.2-2.3-0.5-2.9
				c-0.3-0.6-0.8-0.9-1.5-0.9c-0.7,0-1.2,0.3-1.5,0.9C144.9,123,144.8,124,144.8,125.3z"/>
			<path class="st3" d="M157.3,125.3c0,1.6-0.3,2.8-0.8,3.6c-0.5,0.8-1.3,1.2-2.3,1.2c-1,0-1.8-0.4-2.3-1.2c-0.5-0.8-0.8-2-0.8-3.6
				c0-1.6,0.3-2.8,0.8-3.6c0.5-0.8,1.3-1.2,2.3-1.2c1,0,1.8,0.4,2.3,1.2C157,122.6,157.3,123.8,157.3,125.3z M152.2,125.3
				c0,1.4,0.2,2.3,0.5,2.9s0.8,0.9,1.5,0.9c0.7,0,1.2-0.3,1.5-0.9c0.3-0.6,0.5-1.6,0.5-2.9c0-1.3-0.2-2.3-0.5-2.9
				c-0.3-0.6-0.8-0.9-1.5-0.9c-0.7,0-1.2,0.3-1.5,0.9S152.2,124,152.2,125.3z"/>
		</g>
		<g>
			<path class="st3" d="M119.4,139.5c-0.7,0-1.2-0.2-1.6-0.6s-0.6-1-0.6-1.8c0-0.8,0.2-1.4,0.6-1.8c0.4-0.4,0.9-0.6,1.6-0.6
				c0.2,0,0.4,0,0.7,0.1c0.2,0,0.4,0.1,0.5,0.2l-0.2,0.6c-0.2-0.1-0.3-0.1-0.5-0.2c-0.2,0-0.3-0.1-0.5-0.1c-0.9,0-1.4,0.6-1.4,1.8
				c0,0.6,0.1,1,0.3,1.3s0.6,0.5,1,0.5c0.4,0,0.8-0.1,1.2-0.2v0.6C120.3,139.4,119.9,139.5,119.4,139.5z"/>
			<path class="st3" d="M125.7,137c0,0.8-0.2,1.3-0.6,1.8c-0.4,0.4-0.9,0.6-1.6,0.6c-0.4,0-0.8-0.1-1.1-0.3
				c-0.3-0.2-0.6-0.5-0.7-0.8c-0.2-0.4-0.3-0.8-0.3-1.3c0-0.8,0.2-1.3,0.6-1.8c0.4-0.4,0.9-0.6,1.6-0.6c0.6,0,1.2,0.2,1.5,0.6
				C125.5,135.7,125.7,136.3,125.7,137z M122.1,137c0,0.6,0.1,1,0.4,1.4c0.2,0.3,0.6,0.5,1,0.5c0.5,0,0.8-0.2,1-0.5s0.4-0.8,0.4-1.4
				c0-0.6-0.1-1-0.4-1.3c-0.2-0.3-0.6-0.5-1.1-0.5c-0.5,0-0.8,0.2-1,0.5C122.3,136,122.1,136.4,122.1,137z"/>
			<path class="st3" d="M127.9,139.4l-1.8-4.6h0.8l1,2.8c0.2,0.6,0.4,1.1,0.4,1.3h0c0-0.1,0.1-0.5,0.3-0.9s0.5-1.5,1.1-3.1h0.8
				l-1.8,4.6H127.9z"/>
			<path class="st3" d="M133.2,139.5c-0.7,0-1.2-0.2-1.6-0.6s-0.6-1-0.6-1.7c0-0.7,0.2-1.3,0.6-1.8s0.9-0.7,1.5-0.7
				c0.6,0,1,0.2,1.4,0.6c0.3,0.4,0.5,0.9,0.5,1.5v0.4h-3.2c0,0.5,0.2,1,0.4,1.2c0.3,0.3,0.6,0.4,1.1,0.4c0.5,0,1-0.1,1.5-0.3v0.6
				c-0.2,0.1-0.5,0.2-0.7,0.2C133.8,139.4,133.5,139.5,133.2,139.5z M133,135.2c-0.4,0-0.7,0.1-0.9,0.4c-0.2,0.2-0.4,0.6-0.4,1h2.4
				c0-0.4-0.1-0.8-0.3-1C133.7,135.4,133.4,135.2,133,135.2z"/>
			<path class="st3" d="M138.2,134.6c0.2,0,0.4,0,0.6,0.1l-0.1,0.7c-0.2,0-0.4-0.1-0.5-0.1c-0.4,0-0.7,0.2-1,0.5
				c-0.3,0.3-0.4,0.7-0.4,1.1v2.5h-0.7v-4.6h0.6l0.1,0.9h0c0.2-0.3,0.4-0.5,0.6-0.7S137.9,134.6,138.2,134.6z"/>
			<path class="st3" d="M142.5,139.4l-0.1-0.7h0c-0.2,0.3-0.5,0.5-0.7,0.6c-0.2,0.1-0.5,0.2-0.9,0.2c-0.5,0-0.8-0.1-1.1-0.4
				c-0.3-0.2-0.4-0.6-0.4-1c0-0.9,0.7-1.4,2.2-1.5l0.8,0v-0.3c0-0.4-0.1-0.6-0.2-0.8c-0.2-0.2-0.4-0.3-0.8-0.3
				c-0.4,0-0.8,0.1-1.3,0.4l-0.2-0.5c0.2-0.1,0.5-0.2,0.8-0.3c0.3-0.1,0.5-0.1,0.8-0.1c0.6,0,1,0.1,1.2,0.4c0.3,0.2,0.4,0.6,0.4,1.2
				v3.2H142.5z M140.9,138.9c0.4,0,0.8-0.1,1-0.4s0.4-0.6,0.4-1v-0.4l-0.7,0c-0.6,0-1,0.1-1.2,0.3c-0.2,0.2-0.4,0.4-0.4,0.7
				c0,0.3,0.1,0.4,0.2,0.6C140.4,138.8,140.6,138.9,140.9,138.9z"/>
			<path class="st3" d="M148.3,134.7v0.4l-0.9,0.1c0.1,0.1,0.2,0.2,0.2,0.4c0.1,0.2,0.1,0.3,0.1,0.5c0,0.5-0.2,0.8-0.5,1.1
				c-0.3,0.3-0.7,0.4-1.3,0.4c-0.1,0-0.3,0-0.4,0c-0.3,0.2-0.4,0.4-0.4,0.6c0,0.1,0.1,0.2,0.2,0.3s0.3,0.1,0.5,0.1h0.8
				c0.5,0,0.9,0.1,1.2,0.3c0.3,0.2,0.4,0.5,0.4,0.9c0,0.5-0.2,0.9-0.6,1.2c-0.4,0.3-1,0.4-1.8,0.4c-0.6,0-1.1-0.1-1.4-0.3
				c-0.3-0.2-0.5-0.5-0.5-1c0-0.3,0.1-0.5,0.3-0.7c0.2-0.2,0.4-0.3,0.8-0.4c-0.1-0.1-0.2-0.1-0.3-0.2s-0.1-0.2-0.1-0.4
				c0-0.2,0-0.3,0.1-0.4c0.1-0.1,0.2-0.3,0.4-0.4c-0.2-0.1-0.4-0.3-0.6-0.5c-0.2-0.2-0.2-0.5-0.2-0.8c0-0.5,0.2-0.9,0.5-1.2
				s0.7-0.4,1.3-0.4c0.2,0,0.5,0,0.7,0.1H148.3z M144.6,140.1c0,0.3,0.1,0.4,0.3,0.6c0.2,0.1,0.5,0.2,0.9,0.2c0.6,0,1-0.1,1.3-0.3
				c0.3-0.2,0.4-0.4,0.4-0.7c0-0.3-0.1-0.4-0.2-0.5c-0.2-0.1-0.4-0.1-0.9-0.1h-0.8c-0.3,0-0.6,0.1-0.7,0.2S144.6,139.9,144.6,140.1z
				 M144.9,136.2c0,0.3,0.1,0.6,0.3,0.7s0.4,0.2,0.8,0.2c0.7,0,1-0.3,1-1c0-0.7-0.3-1-1-1c-0.3,0-0.6,0.1-0.8,0.3
				S144.9,135.9,144.9,136.2z"/>
			<path class="st3" d="M151.2,139.5c-0.7,0-1.2-0.2-1.6-0.6s-0.6-1-0.6-1.7c0-0.7,0.2-1.3,0.6-1.8s0.9-0.7,1.5-0.7
				c0.6,0,1,0.2,1.4,0.6c0.3,0.4,0.5,0.9,0.5,1.5v0.4h-3.2c0,0.5,0.2,1,0.4,1.2c0.3,0.3,0.6,0.4,1.1,0.4c0.5,0,1-0.1,1.5-0.3v0.6
				c-0.2,0.1-0.5,0.2-0.7,0.2C151.8,139.4,151.5,139.5,151.2,139.5z M151,135.2c-0.4,0-0.7,0.1-0.9,0.4c-0.2,0.2-0.4,0.6-0.4,1h2.4
				c0-0.4-0.1-0.8-0.3-1C151.6,135.4,151.4,135.2,151,135.2z"/>
		</g>
	</g>
	<g>
		<path class="st3" d="M82.6,172.9c-2.5-0.1-5-0.7-7.3-1.7v-5.8c1.3,0.7,2.8,1.3,4.4,1.7c1.6,0.5,3,0.7,4.1,0.7c1,0,1.7-0.1,2.2-0.4
			c0.5-0.2,0.7-0.6,0.7-1.2c0-0.4-0.2-0.7-0.5-1c-0.3-0.3-0.9-0.6-1.6-0.9c-0.8-0.3-1.8-0.7-3.1-1.2c-1.5-0.5-2.7-1.2-3.6-1.8
			c-0.9-0.7-1.6-1.4-2-2.3c-0.4-0.8-0.6-1.9-0.6-3.1c0-1.9,0.6-3.4,1.8-4.5s3.1-1.7,5.5-2v-2.4h3.6v2.3c2.3,0.1,4.6,0.7,7,1.7
			l-2.1,4.9c-2.4-1.1-4.6-1.6-6.5-1.6c-0.9,0-1.6,0.1-2,0.3c-0.4,0.2-0.6,0.6-0.6,1c0,0.4,0.1,0.7,0.4,0.9c0.3,0.2,0.7,0.5,1.4,0.8
			c0.7,0.3,1.6,0.7,2.8,1.1c2.4,0.9,4.2,1.8,5.2,2.9c1.1,1.1,1.6,2.5,1.6,4.2c0,1.9-0.6,3.5-1.8,4.7c-1.2,1.2-3,2-5.4,2.3v3.3h-3.6
			V172.9z"/>
		<path class="st3" d="M111,174h-7v-13.4c0-1.6,0-3.1,0.1-4.5c-0.4,0.5-1,1.1-1.6,1.6l-2.9,2.4l-3.6-4.4l8.7-7.1h6.2V174z"/>
		<path class="st3" d="M134.1,154.2c0,1.6-0.5,2.9-1.4,4.1c-1,1.1-2.3,1.9-4.2,2.5v0.1c4.2,0.5,6.3,2.5,6.3,6c0,2.4-0.9,4.2-2.8,5.6
			c-1.9,1.4-4.5,2-7.8,2c-1.4,0-2.6-0.1-3.8-0.3s-2.4-0.6-3.8-1.1v-5.7c1.1,0.6,2.2,1,3.4,1.3s2.2,0.4,3.2,0.4
			c1.5,0,2.6-0.2,3.3-0.6c0.7-0.4,1-1.1,1-2c0-0.7-0.2-1.2-0.5-1.6s-0.9-0.7-1.7-0.9c-0.8-0.2-1.8-0.3-3.1-0.3h-1.6v-5.2h1.6
			c3.5,0,5.2-0.9,5.2-2.7c0-0.7-0.3-1.2-0.8-1.5c-0.5-0.3-1.2-0.5-2.1-0.5c-1.6,0-3.3,0.5-5,1.6l-2.8-4.6c1.3-0.9,2.7-1.6,4.1-2
			c1.4-0.4,3-0.6,4.8-0.6c2.6,0,4.7,0.5,6.2,1.6C133.3,150.9,134.1,152.4,134.1,154.2z"/>
		<path class="st3" d="M137.8,171.2c0-1.1,0.3-1.9,0.9-2.5c0.6-0.6,1.5-0.9,2.7-0.9c1.1,0,2,0.3,2.6,0.9s0.9,1.4,0.9,2.5
			c0,1-0.3,1.9-0.9,2.4c-0.6,0.6-1.5,0.9-2.6,0.9c-1.1,0-2-0.3-2.7-0.9S137.8,172.2,137.8,171.2z"/>
		<path class="st3" d="M158.1,157.4c1.5,0,2.8,0.3,3.9,1c1.2,0.7,2.1,1.6,2.7,2.9s1,2.7,1,4.3c0,2.8-0.9,5-2.6,6.5
			c-1.7,1.5-4.3,2.3-7.7,2.3c-3,0-5.4-0.5-7.3-1.4v-5.6c1,0.5,2.1,0.8,3.4,1.1c1.3,0.3,2.4,0.5,3.3,0.5c1.3,0,2.2-0.3,2.9-0.8
			c0.7-0.5,1-1.3,1-2.4c0-1-0.3-1.7-1-2.3c-0.7-0.5-1.7-0.8-3.2-0.8c-1.1,0-2.2,0.2-3.5,0.6l-2.5-1.2l1-13.4H164v5.7h-8.6l-0.3,3.3
			c0.9-0.2,1.5-0.3,1.9-0.3C157.4,157.4,157.7,157.4,158.1,157.4z"/>
		<path class="st3" d="M187.6,169.1h-2.8v4.9h-6.8v-4.9H168v-5l10.5-15.4h6.3V164h2.8V169.1z M178.1,164v-2.9c0-0.6,0-1.3,0.1-2.2
			c0-0.9,0.1-1.4,0.1-1.5H178c-0.4,0.9-0.8,1.7-1.3,2.5l-2.8,4.2H178.1z"/>
		<path class="st3" d="M191,149.4l-0.2,1.7l1.7-0.5l0.1,0.8l-1.6,0.1l1,1.4l-0.7,0.4l-0.7-1.5l-0.7,1.5l-0.7-0.4l1-1.4l-1.6-0.1
			l0.1-0.8l1.7,0.5l-0.2-1.7H191z"/>
	</g>
	<g>
		<path class="st3" d="M117.2,187.1c-0.3,0-0.6-0.1-0.8-0.2c-0.2-0.1-0.5-0.3-0.6-0.5h-0.1c0,0.3,0.1,0.5,0.1,0.8v1.9H115v-6.7h0.6
			l0.1,0.6h0c0.2-0.3,0.4-0.4,0.6-0.5s0.5-0.2,0.8-0.2c0.6,0,1.1,0.2,1.4,0.6c0.3,0.4,0.5,1,0.5,1.8c0,0.8-0.2,1.4-0.5,1.8
			S117.8,187.1,117.2,187.1z M117.1,182.9c-0.5,0-0.8,0.1-1,0.4c-0.2,0.3-0.3,0.7-0.3,1.3v0.2c0,0.7,0.1,1.1,0.3,1.4
			c0.2,0.3,0.6,0.4,1,0.4c0.4,0,0.7-0.2,0.9-0.5s0.3-0.8,0.3-1.3c0-0.6-0.1-1-0.3-1.3S117.5,182.9,117.1,182.9z"/>
		<path class="st3" d="M122.3,187.1c-0.7,0-1.2-0.2-1.6-0.6c-0.4-0.4-0.6-1-0.6-1.7c0-0.7,0.2-1.3,0.6-1.8c0.4-0.4,0.9-0.7,1.5-0.7
			c0.6,0,1,0.2,1.4,0.6c0.3,0.4,0.5,0.9,0.5,1.5v0.4h-3.2c0,0.5,0.2,1,0.4,1.2c0.3,0.3,0.6,0.4,1.1,0.4c0.5,0,1-0.1,1.5-0.3v0.6
			c-0.2,0.1-0.5,0.2-0.7,0.2C122.9,187.1,122.6,187.1,122.3,187.1z M122.1,182.9c-0.4,0-0.7,0.1-0.9,0.4c-0.2,0.2-0.4,0.6-0.4,1h2.4
			c0-0.4-0.1-0.8-0.3-1C122.7,183,122.5,182.9,122.1,182.9z"/>
		<path class="st3" d="M127.3,182.3c0.2,0,0.4,0,0.6,0.1l-0.1,0.7c-0.2,0-0.4-0.1-0.5-0.1c-0.4,0-0.7,0.2-1,0.5
			c-0.3,0.3-0.4,0.7-0.4,1.1v2.5h-0.7v-4.6h0.6l0.1,0.9h0c0.2-0.3,0.4-0.5,0.6-0.7S127,182.3,127.3,182.3z"/>
		<path class="st3" d="M136.9,187v-3c0-0.4-0.1-0.6-0.2-0.8c-0.2-0.2-0.4-0.3-0.7-0.3c-0.4,0-0.8,0.1-1,0.4
			c-0.2,0.3-0.3,0.6-0.3,1.2v2.6h-0.7v-3c0-0.4-0.1-0.6-0.2-0.8c-0.2-0.2-0.4-0.3-0.7-0.3c-0.4,0-0.8,0.1-1,0.4s-0.3,0.7-0.3,1.3
			v2.4H131v-4.6h0.6l0.1,0.6h0c0.1-0.2,0.3-0.4,0.6-0.5c0.2-0.1,0.5-0.2,0.8-0.2c0.7,0,1.2,0.3,1.4,0.8h0c0.1-0.2,0.3-0.4,0.6-0.6
			c0.3-0.1,0.6-0.2,0.9-0.2c0.5,0,0.9,0.1,1.2,0.4c0.3,0.3,0.4,0.7,0.4,1.3v3H136.9z"/>
		<path class="st3" d="M143,184.7c0,0.8-0.2,1.3-0.6,1.8c-0.4,0.4-0.9,0.6-1.6,0.6c-0.4,0-0.8-0.1-1.1-0.3c-0.3-0.2-0.6-0.5-0.7-0.8
			c-0.2-0.4-0.3-0.8-0.3-1.3c0-0.8,0.2-1.3,0.6-1.8c0.4-0.4,0.9-0.6,1.6-0.6c0.6,0,1.2,0.2,1.5,0.6C142.9,183.4,143,184,143,184.7z
			 M139.5,184.7c0,0.6,0.1,1,0.4,1.4s0.6,0.5,1,0.5c0.5,0,0.8-0.2,1-0.5s0.4-0.8,0.4-1.4c0-0.6-0.1-1-0.4-1.3
			c-0.2-0.3-0.6-0.5-1.1-0.5c-0.5,0-0.8,0.2-1,0.5C139.6,183.7,139.5,184.1,139.5,184.7z"/>
		<path class="st3" d="M147.4,187v-3c0-0.4-0.1-0.7-0.3-0.8c-0.2-0.2-0.4-0.3-0.8-0.3c-0.5,0-0.8,0.1-1.1,0.4
			c-0.2,0.3-0.3,0.7-0.3,1.3v2.4h-0.7v-4.6h0.6l0.1,0.6h0c0.1-0.2,0.3-0.4,0.6-0.5c0.3-0.1,0.5-0.2,0.9-0.2c0.6,0,1,0.1,1.3,0.4
			c0.3,0.3,0.4,0.7,0.4,1.3v3H147.4z"/>
		<path class="st3" d="M151.1,186.5c0.1,0,0.2,0,0.4,0c0.1,0,0.2,0,0.3-0.1v0.5c-0.1,0-0.2,0.1-0.3,0.1c-0.1,0-0.3,0-0.4,0
			c-0.9,0-1.3-0.5-1.3-1.4v-2.8H149v-0.3l0.7-0.3l0.3-1h0.4v1.1h1.3v0.5h-1.3v2.7c0,0.3,0.1,0.5,0.2,0.6
			C150.7,186.5,150.9,186.5,151.1,186.5z"/>
		<path class="st3" d="M155.8,187v-3c0-0.4-0.1-0.7-0.3-0.8c-0.2-0.2-0.4-0.3-0.8-0.3c-0.5,0-0.8,0.1-1.1,0.4
			c-0.2,0.3-0.3,0.7-0.3,1.3v2.4h-0.7v-6.6h0.7v2c0,0.2,0,0.4,0,0.6h0c0.1-0.2,0.3-0.4,0.6-0.5c0.3-0.1,0.5-0.2,0.9-0.2
			c0.6,0,1,0.1,1.3,0.4s0.4,0.7,0.4,1.3v3H155.8z"/>
	</g>
	<g>
		<path class="st3" d="M23.2,179.5h-0.7v-6.4H26v0.7h-2.8v2.4h2.7v0.7h-2.7V179.5z"/>
		<path class="st3" d="M29,179.6c-0.7,0-1.3-0.2-1.7-0.7c-0.4-0.4-0.6-1-0.6-1.8c0-0.8,0.2-1.4,0.6-1.8c0.4-0.5,0.9-0.7,1.5-0.7
			c0.6,0,1.1,0.2,1.4,0.6c0.4,0.4,0.5,0.9,0.5,1.6v0.5h-3.3c0,0.6,0.2,1,0.4,1.3s0.7,0.4,1.1,0.4c0.5,0,1-0.1,1.5-0.3v0.7
			c-0.3,0.1-0.5,0.2-0.7,0.2C29.6,179.6,29.3,179.6,29,179.6z M28.8,175.2c-0.4,0-0.7,0.1-0.9,0.4c-0.2,0.3-0.4,0.6-0.4,1H30
			c0-0.5-0.1-0.8-0.3-1.1C29.5,175.3,29.2,175.2,28.8,175.2z"/>
		<path class="st3" d="M38.1,179.5v-3.1c0-0.4-0.1-0.7-0.2-0.9c-0.2-0.2-0.4-0.3-0.8-0.3c-0.5,0-0.8,0.1-1,0.4s-0.3,0.7-0.3,1.2v2.7
			h-0.7v-3.1c0-0.4-0.1-0.7-0.2-0.9c-0.2-0.2-0.4-0.3-0.8-0.3c-0.5,0-0.8,0.1-1,0.4c-0.2,0.3-0.3,0.7-0.3,1.3v2.5H32v-4.8h0.6
			l0.1,0.7h0c0.1-0.2,0.3-0.4,0.6-0.5c0.3-0.1,0.5-0.2,0.8-0.2c0.8,0,1.2,0.3,1.5,0.8h0c0.1-0.3,0.4-0.5,0.6-0.6s0.6-0.2,0.9-0.2
			c0.5,0,1,0.1,1.2,0.4c0.3,0.3,0.4,0.7,0.4,1.3v3.1H38.1z"/>
		<path class="st3" d="M43.3,179.5l-0.1-0.7h0c-0.2,0.3-0.5,0.5-0.7,0.6c-0.2,0.1-0.5,0.2-0.9,0.2c-0.5,0-0.9-0.1-1.1-0.4
			s-0.4-0.6-0.4-1.1c0-1,0.8-1.5,2.3-1.5l0.8,0v-0.3c0-0.4-0.1-0.7-0.2-0.8c-0.2-0.2-0.4-0.3-0.8-0.3c-0.4,0-0.9,0.1-1.4,0.4
			l-0.2-0.6c0.2-0.1,0.5-0.2,0.8-0.3s0.6-0.1,0.9-0.1c0.6,0,1,0.1,1.3,0.4c0.3,0.3,0.4,0.7,0.4,1.2v3.3H43.3z M41.7,179
			c0.5,0,0.8-0.1,1.1-0.4c0.3-0.2,0.4-0.6,0.4-1v-0.4l-0.7,0c-0.6,0-1,0.1-1.3,0.3c-0.3,0.2-0.4,0.4-0.4,0.7c0,0.3,0.1,0.5,0.2,0.6
			S41.4,179,41.7,179z"/>
		<path class="st3" d="M46.1,179.5h-0.7v-6.8h0.7V179.5z"/>
		<path class="st3" d="M49.7,179.6c-0.7,0-1.3-0.2-1.7-0.7c-0.4-0.4-0.6-1-0.6-1.8c0-0.8,0.2-1.4,0.6-1.8c0.4-0.5,0.9-0.7,1.5-0.7
			c0.6,0,1.1,0.2,1.4,0.6c0.4,0.4,0.5,0.9,0.5,1.6v0.5h-3.3c0,0.6,0.2,1,0.4,1.3s0.7,0.4,1.1,0.4c0.5,0,1-0.1,1.5-0.3v0.7
			c-0.3,0.1-0.5,0.2-0.7,0.2C50.3,179.6,50,179.6,49.7,179.6z M49.5,175.2c-0.4,0-0.7,0.1-0.9,0.4c-0.2,0.3-0.4,0.6-0.4,1h2.5
			c0-0.5-0.1-0.8-0.3-1.1C50.2,175.3,49.9,175.2,49.5,175.2z"/>
		<path class="st3" d="M27.5,190.3l-0.8-2h-2.6l-0.8,2h-0.8l2.5-6.5h0.6l2.5,6.5H27.5z M26.5,187.6l-0.7-2c-0.1-0.3-0.2-0.6-0.3-0.9
			c-0.1,0.3-0.2,0.6-0.3,0.9l-0.8,2H26.5z"/>
		<path class="st3" d="M33,185.5v0.5l-0.9,0.1c0.1,0.1,0.2,0.2,0.2,0.4c0.1,0.2,0.1,0.4,0.1,0.6c0,0.5-0.2,0.8-0.5,1.1
			s-0.8,0.4-1.3,0.4c-0.1,0-0.3,0-0.4,0c-0.3,0.2-0.5,0.4-0.5,0.6c0,0.1,0.1,0.2,0.2,0.3c0.1,0.1,0.3,0.1,0.6,0.1h0.9
			c0.5,0,0.9,0.1,1.2,0.3c0.3,0.2,0.4,0.5,0.4,1c0,0.5-0.2,0.9-0.6,1.2c-0.4,0.3-1.1,0.4-1.9,0.4c-0.6,0-1.1-0.1-1.5-0.4
			c-0.3-0.2-0.5-0.6-0.5-1c0-0.3,0.1-0.5,0.3-0.8c0.2-0.2,0.5-0.4,0.8-0.4c-0.1-0.1-0.2-0.1-0.3-0.3c-0.1-0.1-0.1-0.3-0.1-0.4
			c0-0.2,0-0.3,0.1-0.5c0.1-0.1,0.2-0.3,0.4-0.4c-0.2-0.1-0.5-0.3-0.6-0.5s-0.2-0.5-0.2-0.8c0-0.5,0.2-0.9,0.5-1.2
			c0.3-0.3,0.8-0.4,1.3-0.4c0.3,0,0.5,0,0.7,0.1H33z M29.2,191.1c0,0.3,0.1,0.5,0.3,0.6c0.2,0.1,0.5,0.2,0.9,0.2
			c0.6,0,1.1-0.1,1.4-0.3c0.3-0.2,0.4-0.4,0.4-0.7c0-0.3-0.1-0.4-0.2-0.5c-0.2-0.1-0.5-0.2-0.9-0.2h-0.9c-0.3,0-0.6,0.1-0.8,0.2
			S29.2,190.8,29.2,191.1z M29.5,187c0,0.3,0.1,0.6,0.3,0.8c0.2,0.2,0.5,0.3,0.8,0.3c0.7,0,1.1-0.3,1.1-1c0-0.7-0.4-1.1-1.1-1.1
			c-0.3,0-0.6,0.1-0.8,0.3S29.5,186.7,29.5,187z"/>
		<path class="st3" d="M36,190.4c-0.7,0-1.3-0.2-1.7-0.7c-0.4-0.4-0.6-1-0.6-1.8c0-0.8,0.2-1.4,0.6-1.8c0.4-0.5,0.9-0.7,1.5-0.7
			c0.6,0,1.1,0.2,1.4,0.6c0.4,0.4,0.5,0.9,0.5,1.6v0.5h-3.3c0,0.6,0.2,1,0.4,1.3s0.7,0.4,1.1,0.4c0.5,0,1-0.1,1.5-0.3v0.7
			c-0.3,0.1-0.5,0.2-0.7,0.2C36.6,190.4,36.3,190.4,36,190.4z M35.8,186c-0.4,0-0.7,0.1-0.9,0.4c-0.2,0.3-0.4,0.6-0.4,1H37
			c0-0.5-0.1-0.8-0.3-1.1C36.5,186.1,36.2,186,35.8,186z"/>
		<path class="st3" d="M45.6,188.8h-1v1.5h-0.7v-1.5h-3.1v-0.6l3-4.3h0.8v4.3h1V188.8z M43.9,188.2V186c0-0.4,0-0.9,0-1.4h0
			c-0.1,0.3-0.3,0.5-0.4,0.7l-2,2.9H43.9z"/>
		<path class="st3" d="M50.4,187.1c0,1.1-0.2,1.9-0.5,2.5c-0.4,0.5-0.9,0.8-1.6,0.8c-0.7,0-1.2-0.3-1.6-0.8
			c-0.4-0.6-0.5-1.4-0.5-2.5c0-1.1,0.2-2,0.5-2.5s0.9-0.8,1.6-0.8c0.7,0,1.2,0.3,1.6,0.8C50.3,185.2,50.4,186,50.4,187.1z
			 M46.9,187.1c0,0.9,0.1,1.6,0.3,2c0.2,0.4,0.6,0.6,1.1,0.6c0.5,0,0.8-0.2,1.1-0.6c0.2-0.4,0.3-1.1,0.3-2c0-0.9-0.1-1.6-0.3-2
			c-0.2-0.4-0.6-0.6-1.1-0.6c-0.5,0-0.8,0.2-1.1,0.6C47,185.5,46.9,186.1,46.9,187.1z"/>
	</g>
</g>
</svg>
